<?xml version="1.0" encoding="UTF-8"?><svg id="a" xmlns="http://www.w3.org/2000/svg" viewBox="0 0 78.34 84.787"><g id="b"><g transform="translate(0 1)"><path d="M57.626,32.025h-15.782l14.63-23.04h-18.432L20.762,43.545h13.594l-13.594,32.256L57.626,32.025Z"/><path d="M20.762,76.954c-.23,0-.461,0-.576-.115-.461-.346-.691-.922-.461-1.382l12.902-30.759h-11.866c-.346,0-.806-.23-1.037-.576s-.23-.806,0-1.152L37.005,8.409c.23-.346,.576-.576,1.037-.576h18.432c.461,0,.806,.23,1.037,.576,.23,.346,.23,.806,0,1.152l-13.478,21.312h13.594c.461,0,.806,.23,1.037,.691s.115,.922-.115,1.267L21.683,76.608c-.23,.23-.576,.346-.922,.346Zm1.843-34.56h11.75c.346,0,.691,.23,.922,.461,.23,.346,.23,.691,.115,1.037l-10.598,25.344,30.413-36.058h-13.363c-.461,0-.806-.23-1.037-.576s-.23-.806,0-1.152l13.594-21.312h-15.667L22.605,42.393Z"/></g></g></svg>